<svg width="12" height="12" viewBox="0 0 12 12" fill="none" xmlns="http://www.w3.org/2000/svg">
<g id="information">
<g id="&#237;&#140;&#168;&#236;&#138;&#164; 293403">
<path id="Vector" d="M5.99999 0.900488C3.18784 0.900488 0.9 3.18833 0.9 6.00048C0.9 8.81263 3.18784 11.1005 5.99999 11.1005C8.81214 11.1005 11.1 8.81263 11.1 6.00048C11.1 3.18833 8.81214 0.900488 5.99999 0.900488ZM5.99999 0.000488281C9.31371 0.000488281 12 2.68678 12 6.00048C12 9.3142 9.31371 12.0005 5.99999 12.0005C2.68629 12.0005 0 9.3142 0 6.00048C0 2.68678 2.68629 0.000488281 5.99999 0.000488281Z" fill="#707070"/>
</g>
<path id="&#237;&#149;&#169;&#236;&#185;&#152;&#234;&#184;&#176; 1307" d="M5.54773 9.3379V5.06349H6.44714V9.3379H5.54773ZM5.43567 3.82716C5.43567 3.71591 5.46834 3.60765 5.53015 3.51515C5.59196 3.42264 5.68005 3.34971 5.78284 3.30714C5.88562 3.26457 5.99892 3.25321 6.10803 3.27491C6.21715 3.29662 6.31721 3.35005 6.39587 3.42872C6.47454 3.50739 6.52798 3.60818 6.54968 3.7173C6.57139 3.82641 6.56003 3.93971 6.51746 4.04249C6.47488 4.14527 6.40342 4.23264 6.31091 4.29444C6.21841 4.35625 6.10942 4.38966 5.99817 4.38966C5.9244 4.38956 5.85169 4.3755 5.78357 4.34718C5.71545 4.31886 5.65329 4.27636 5.6012 4.22413C5.5491 4.1719 5.50775 4.11068 5.47961 4.04249C5.45147 3.9743 5.43704 3.90093 5.43713 3.82716H5.43567Z" fill="#707070"/>
</g>
</svg>
