<svg width="20" height="20" viewBox="0 0 20 20" fill="none" xmlns="http://www.w3.org/2000/svg">
<g id="Danger Circle">
<path id="Fill 1" fill-rule="evenodd" clip-rule="evenodd" d="M10 1.50012C5.313 1.50012 1.5 5.31312 1.5 10.0001C1.5 14.6871 5.313 18.5001 10 18.5001C14.687 18.5001 18.5 14.6871 18.5 10.0001C18.5 5.31312 14.687 1.50012 10 1.50012ZM10 20.0001C4.486 20.0001 0 15.5141 0 10.0001C0 4.48612 4.486 0.00012207 10 0.00012207C15.514 0.00012207 20 4.48612 20 10.0001C20 15.5141 15.514 20.0001 10 20.0001Z" fill="black"/>
<path id="Fill 3" fill-rule="evenodd" clip-rule="evenodd" d="M9.99414 11.3731C9.58014 11.3731 9.24414 11.0371 9.24414 10.6231V6.2041C9.24414 5.7901 9.58014 5.4541 9.99414 5.4541C10.4081 5.4541 10.7441 5.7901 10.7441 6.2041V10.6231C10.7441 11.0371 10.4081 11.3731 9.99414 11.3731Z" fill="black"/>
<path id="Fill 5" fill-rule="evenodd" clip-rule="evenodd" d="M10.0039 14.796C9.4509 14.796 8.9989 14.349 8.9989 13.796C8.9989 13.243 9.4419 12.796 9.9939 12.796H10.0039C10.5569 12.796 11.0039 13.243 11.0039 13.796C11.0039 14.349 10.5569 14.796 10.0039 14.796Z" fill="black"/>
</g>
</svg>
