<svg xmlns="http://www.w3.org/2000/svg" width="26" height="24" viewBox="0 0 26 24" fill="none">
  <path d="M20.0092 16.83L20.4317 19.99C20.54 20.82 19.5758 21.4 18.8067 20.97L14.2675 18.48C13.7692 18.48 13.2817 18.45 12.805 18.39C13.6067 17.52 14.0833 16.42 14.0833 15.23C14.0833 12.39 11.4183 10.09 8.125 10.09C6.86833 10.09 5.70917 10.42 4.745 11C4.7125 10.75 4.70166 10.5 4.70166 10.24C4.70166 5.68999 8.98083 2 14.2675 2C19.5542 2 23.8333 5.68999 23.8333 10.24C23.8333 12.94 22.3275 15.33 20.0092 16.83Z" stroke="#424242" stroke-width="1.5" stroke-miterlimit="10" stroke-linecap="round" stroke-linejoin="round"/>
  <path d="M14.0834 15.2298C14.0834 16.4198 13.6068 17.5198 12.8051 18.3898C11.7326 19.5898 10.0317 20.3598 8.12508 20.3598L5.29758 21.9098C4.82091 22.1798 4.21424 21.8098 4.27924 21.2998L4.55008 19.3298C3.09841 18.3998 2.16675 16.9098 2.16675 15.2298C2.16675 13.4698 3.18509 11.9198 4.74509 10.9998C5.70925 10.4198 6.86841 10.0898 8.12508 10.0898C11.4184 10.0898 14.0834 12.3898 14.0834 15.2298Z" stroke="#424242" stroke-width="1.5" stroke-miterlimit="10" stroke-linecap="round" stroke-linejoin="round"/>
</svg>