<svg width="24" height="24" viewBox="0 0 24 24" fill="none" xmlns="http://www.w3.org/2000/svg">
<g id="vuesax/linear/note-favorite">
<g id="note-favorite">
<path id="Vector" d="M8 2V5" stroke="#424242" stroke-width="1.5" stroke-miterlimit="10" stroke-linecap="round" stroke-linejoin="round"/>
<path id="Vector_2" d="M16 2V5" stroke="#424242" stroke-width="1.5" stroke-miterlimit="10" stroke-linecap="round" stroke-linejoin="round"/>
<path id="Vector_3" d="M21 8.5V13.63C20.11 12.92 18.98 12.5 17.75 12.5C16.52 12.5 15.37 12.93 14.47 13.66C13.26 14.61 12.5 16.1 12.5 17.75C12.5 18.73 12.78 19.67 13.26 20.45C13.63 21.06 14.11 21.59 14.68 22H8C4.5 22 3 20 3 17V8.5C3 5.5 4.5 3.5 8 3.5H16C19.5 3.5 21 5.5 21 8.5Z" stroke="#424242" stroke-width="1.5" stroke-miterlimit="10" stroke-linecap="round" stroke-linejoin="round"/>
<path id="Vector_4" d="M7 11H13" stroke="#424242" stroke-width="1.5" stroke-miterlimit="10" stroke-linecap="round" stroke-linejoin="round"/>
<path id="Vector_5" d="M7 16H9.62" stroke="#424242" stroke-width="1.5" stroke-miterlimit="10" stroke-linecap="round" stroke-linejoin="round"/>
<path id="Vector_6" d="M23 17.75C23 18.73 22.72 19.67 22.24 20.45C21.96 20.93 21.61 21.35 21.2 21.69C20.28 22.51 19.08 23 17.75 23C16.6 23 15.54 22.63 14.68 22C14.11 21.59 13.63 21.06 13.26 20.45C12.78 19.67 12.5 18.73 12.5 17.75C12.5 16.1 13.26 14.61 14.47 13.66C15.37 12.93 16.52 12.5 17.75 12.5C18.98 12.5 20.11 12.92 21 13.63C22.22 14.59 23 16.08 23 17.75Z" stroke="#424242" stroke-width="1.5" stroke-miterlimit="10" stroke-linecap="round" stroke-linejoin="round"/>
<path id="Vector_7" d="M18 20C18 18.896 18.896 18 20 18C18.896 18 18 17.104 18 16C18 17.104 17.104 18 16 18C17.104 18 18 18.896 18 20Z" stroke="#424242" stroke-width="1.5" stroke-linecap="round" stroke-linejoin="round"/>
</g>
</g>
</svg>
