<svg xmlns="http://www.w3.org/2000/svg" width="36" height="36" viewBox="0 0 36 36" fill="none">
  <path d="M10.0702 11.2306V12.3806C10.2947 12.3806 10.5142 12.3149 10.7018 12.1916L10.0702 11.2306ZM18.9627 5.3866L19.5943 6.34764V6.34764L18.9627 5.3866ZM4.17187 11.2306V12.3806H4.17188L4.17187 11.2306ZM10.0702 24.7707L10.7018 23.8096C10.5142 23.6863 10.2947 23.6207 10.0702 23.6207V24.7707ZM18.9627 30.6147L19.5943 29.6536H19.5943L18.9627 30.6147ZM10.7018 12.1916L19.5943 6.34764L18.3311 4.42556L9.43865 10.2696L10.7018 12.1916ZM4.17188 12.3806L10.0702 12.3806V10.0806L4.17187 10.0806L4.17188 12.3806ZM3.32187 13.2306C3.32187 12.7612 3.70243 12.3806 4.17187 12.3806V10.0806C2.43218 10.0806 1.02188 11.4909 1.02188 13.2306H3.32187ZM3.32187 22.7707V13.2306H1.02188V22.7707H3.32187ZM4.17188 23.6207C3.70243 23.6207 3.32187 23.2401 3.32187 22.7707H1.02188C1.02188 24.5104 2.43218 25.9207 4.17188 25.9207V23.6207ZM10.0702 23.6207H4.17188V25.9207H10.0702V23.6207ZM19.5943 29.6536L10.7018 23.8096L9.43865 25.7317L18.3311 31.5757L19.5943 29.6536ZM22.4603 28.1076C22.4603 29.5797 20.8245 30.4621 19.5943 29.6536L18.3311 31.5757C21.0907 33.3893 24.7603 31.4098 24.7603 28.1076H22.4603ZM22.4603 7.89366V28.1076H24.7603V7.89366H22.4603ZM19.5943 6.34764C20.8245 5.53917 22.4603 6.42159 22.4603 7.89366H24.7603C24.7603 4.59145 21.0907 2.61197 18.3311 4.42556L19.5943 6.34764Z" fill="#424242"/>
  <path d="M10 12V20" stroke="#424242" stroke-width="2.3" stroke-linecap="round"/>
  <path d="M29 18H34" stroke="#424242" stroke-width="2.3" stroke-linecap="round"/>
  <path d="M29 11L34 9" stroke="#424242" stroke-width="2.3" stroke-linecap="round"/>
  <path d="M29 25L34 27" stroke="#424242" stroke-width="2.3" stroke-linecap="round"/>
</svg>