<svg width="30" height="27" viewBox="0 0 30 27" fill="none" xmlns="http://www.w3.org/2000/svg">
<path d="M22.5934 19.1492L23.0511 22.5725C23.1685 23.4716 22.1239 24.0999 21.2907 23.6341L16.3732 20.9366C15.8334 20.9366 15.3053 20.9042 14.7889 20.8392C15.6574 19.8967 16.1737 18.705 16.1737 17.4158C16.1737 14.3391 13.2866 11.8475 9.71887 11.8475C8.35748 11.8475 7.10172 12.205 6.05721 12.8333C6.022 12.5625 6.01025 12.2916 6.01025 12.01C6.01025 7.0808 10.646 3.08331 16.3732 3.08331C22.1005 3.08331 26.7362 7.0808 26.7362 12.01C26.7362 14.935 25.1049 17.5242 22.5934 19.1492Z" stroke="#424242" stroke-width="1.5" stroke-linecap="round" stroke-linejoin="round"/>
<path d="M16.1736 17.4158C16.1736 18.705 15.6573 19.8967 14.7888 20.8392C13.6269 22.1392 11.7843 22.9733 9.71878 22.9733L6.65565 24.6525C6.13926 24.945 5.48204 24.5442 5.55245 23.9917L5.84586 21.8575C4.27322 20.85 3.26392 19.2358 3.26392 17.4158C3.26392 15.5092 4.36712 13.83 6.05712 12.8333C7.10163 12.205 8.35739 11.8475 9.71878 11.8475C13.2866 11.8475 16.1736 14.3392 16.1736 17.4158Z" stroke="#424242" stroke-width="1.5" stroke-linecap="round" stroke-linejoin="round"/>
</svg>
