<svg width="26" height="26" viewBox="0 0 26 26" fill="none" xmlns="http://www.w3.org/2000/svg">
<g id="vuesax/linear/note-favorite">
<g id="note-favorite">
<path id="Vector" d="M8.66666 2.16666V5.41666" stroke="#424242" stroke-width="1.5" stroke-miterlimit="10" stroke-linecap="round" stroke-linejoin="round"/>
<path id="Vector_2" d="M17.3333 2.16666V5.41666" stroke="#424242" stroke-width="1.5" stroke-miterlimit="10" stroke-linecap="round" stroke-linejoin="round"/>
<path id="Vector_3" d="M22.75 9.20833V14.7658C21.7858 13.9967 20.5617 13.5417 19.2292 13.5417C17.8967 13.5417 16.6508 14.0075 15.6758 14.7983C14.365 15.8275 13.5417 17.4417 13.5417 19.2292C13.5417 20.2908 13.845 21.3092 14.365 22.1542C14.7658 22.815 15.2858 23.3892 15.9033 23.8333H8.66667C4.875 23.8333 3.25 21.6667 3.25 18.4167V9.20833C3.25 5.95833 4.875 3.79166 8.66667 3.79166H17.3333C21.125 3.79166 22.75 5.95833 22.75 9.20833Z" stroke="#424242" stroke-width="1.5" stroke-miterlimit="10" stroke-linecap="round" stroke-linejoin="round"/>
<path id="Vector_4" d="M7.58334 11.9167H14.0833" stroke="#424242" stroke-width="1.5" stroke-miterlimit="10" stroke-linecap="round" stroke-linejoin="round"/>
<path id="Vector_5" d="M7.58334 17.3333H10.4217" stroke="#424242" stroke-width="1.5" stroke-miterlimit="10" stroke-linecap="round" stroke-linejoin="round"/>
<path id="Vector_6" d="M24.9167 19.2292C24.9167 20.2908 24.6133 21.3092 24.0933 22.1542C23.79 22.6742 23.4108 23.1292 22.9667 23.4975C21.97 24.3858 20.67 24.9167 19.2292 24.9167C17.9833 24.9167 16.835 24.5158 15.9033 23.8333C15.2858 23.3892 14.7658 22.815 14.365 22.1542C13.845 21.3092 13.5417 20.2908 13.5417 19.2292C13.5417 17.4417 14.365 15.8275 15.6758 14.7983C16.6508 14.0075 17.8967 13.5417 19.2292 13.5417C20.5617 13.5417 21.7858 13.9967 22.75 14.7658C24.0717 15.8058 24.9167 17.42 24.9167 19.2292Z" stroke="#424242" stroke-width="1.5" stroke-miterlimit="10" stroke-linecap="round" stroke-linejoin="round"/>
<path id="Vector_7" d="M19.5 21.6667C19.5 20.4707 20.4707 19.5 21.6667 19.5C20.4707 19.5 19.5 18.5293 19.5 17.3333C19.5 18.5293 18.5293 19.5 17.3333 19.5C18.5293 19.5 19.5 20.4707 19.5 21.6667Z" stroke="#424242" stroke-width="1.5" stroke-linecap="round" stroke-linejoin="round"/>
</g>
</g>
</svg>
