<svg width="26" height="26" viewBox="0 0 26 26" fill="none" xmlns="http://www.w3.org/2000/svg">
<g id="vuesax/linear/profile-circle">
<g id="profile-circle">
<path id="Vector" d="M13.13 13.845C13.0542 13.8342 12.9567 13.8342 12.87 13.845C10.9633 13.78 9.44666 12.22 9.44666 10.3025C9.44666 8.34167 11.0283 6.74917 13 6.74917C14.9608 6.74917 16.5533 8.34167 16.5533 10.3025C16.5425 12.22 15.0367 13.78 13.13 13.845Z" stroke="#424242" stroke-width="1.5" stroke-linecap="round" stroke-linejoin="round"/>
<path id="Vector_2" d="M20.3017 20.995C18.3733 22.7608 15.8167 23.8333 13 23.8333C10.1833 23.8333 7.62667 22.7608 5.69833 20.995C5.80667 19.9767 6.45667 18.98 7.61583 18.2C10.5842 16.2283 15.4375 16.2283 18.3842 18.2C19.5433 18.98 20.1933 19.9767 20.3017 20.995Z" stroke="#424242" stroke-width="1.5" stroke-linecap="round" stroke-linejoin="round"/>
<path id="Vector_3" d="M13 23.8333C18.9831 23.8333 23.8333 18.9831 23.8333 13C23.8333 7.01691 18.9831 2.16666 13 2.16666C7.0169 2.16666 2.16666 7.01691 2.16666 13C2.16666 18.9831 7.0169 23.8333 13 23.8333Z" stroke="#424242" stroke-width="1.5" stroke-linecap="round" stroke-linejoin="round"/>
</g>
</g>
</svg>
