<svg width="26" height="26" viewBox="0 0 26 26" fill="none" xmlns="http://www.w3.org/2000/svg">
<g id="autobrightness">
<path id="P" d="M10.5298 8.24512H14.3989C14.6086 8.24512 14.8205 8.26107 15.0347 8.29297C15.2489 8.32487 15.4539 8.38639 15.6499 8.47754C15.8459 8.56413 16.0282 8.68262 16.1968 8.83301C16.3654 8.9834 16.5135 9.17708 16.6411 9.41406C16.7687 9.64648 16.8667 9.92904 16.9351 10.2617C17.008 10.5944 17.0444 10.984 17.0444 11.4307C17.0444 11.8773 17.0057 12.2669 16.9282 12.5996C16.8507 12.9277 16.7459 13.208 16.6138 13.4404C16.4816 13.6729 16.3267 13.862 16.1489 14.0078C15.9712 14.1536 15.7821 14.2699 15.5815 14.3564C15.381 14.4385 15.1737 14.4954 14.9595 14.5273C14.7498 14.5547 14.5425 14.5684 14.3374 14.5684H12.1704V18H10.5298V8.24512ZM14.146 13.0439C14.3921 13.0439 14.5903 13.0029 14.7407 12.9209C14.8957 12.8389 15.0164 12.7249 15.103 12.5791C15.1942 12.4333 15.2557 12.2624 15.2876 12.0664C15.3195 11.8704 15.3354 11.6585 15.3354 11.4307C15.3354 11.2074 15.3195 10.9954 15.2876 10.7949C15.2557 10.5944 15.1942 10.4189 15.103 10.2686C15.0164 10.1136 14.8957 9.99284 14.7407 9.90625C14.5903 9.8151 14.3921 9.76953 14.146 9.76953H12.1704V13.0439H14.146Z" fill="#424242"/>
<path id="Vector" d="M11.6456 2.65406C12.404 2.01489 13.6281 2.01489 14.3648 2.65406L16.0765 4.11656C16.4015 4.38739 17.019 4.61489 17.4523 4.61489H19.294C20.4423 4.61489 21.3848 5.55739 21.3848 6.70572V8.54739C21.3848 8.98072 21.6123 9.58739 21.8831 9.91239L23.3456 11.6241C23.9848 12.3824 23.9848 13.6066 23.3456 14.3432L21.8831 16.0549C21.6123 16.3799 21.3848 16.9866 21.3848 17.4199V19.2616C21.3848 20.4099 20.4423 21.3524 19.294 21.3524H17.4523C17.019 21.3524 16.4123 21.5799 16.0873 21.8507L14.3756 23.3132C13.6173 23.9524 12.3931 23.9524 11.6565 23.3132L9.94479 21.8507C9.61979 21.5799 9.00229 21.3524 8.57979 21.3524H6.68396C5.53563 21.3524 4.59312 20.4099 4.59312 19.2616V17.4091C4.59312 16.9866 4.37646 16.3691 4.10562 16.0549L2.64313 14.3324C2.01479 13.5849 2.01479 12.3716 2.64313 11.6241L4.10562 9.90156C4.37646 9.57656 4.59312 8.96989 4.59312 8.54739V6.71656C4.59312 5.56822 5.53563 4.62572 6.68396 4.62572H8.55813C8.99146 4.62572 9.59812 4.39822 9.92312 4.12739L11.6456 2.65406Z" stroke="#424242" stroke-width="1.5" stroke-linecap="round" stroke-linejoin="round"/>
</g>
</svg>
